# xmcd
#
# Track frame offsets: 
#        150
#        18749
#        36449
#        58348
#        74097
#        89546
#        101095
#        119694
#
# Disc length: 1717 seconds
#
# Revision: 0
# Processed by: cddbd v1.5.2PL0 Copyright (c) Steve Scherf et al.
# Submitted via: ExactAudioCopy v0.95a5
#
DISCID=8006b308
DTITLE=Peter Mansbridge and the CBC's - Love in the Country Songs
DYEAR=2006
DGENRE=Country
TTITLE0=Tilsonburg
TTITLE1=Springtime
TTITLE2=Love in the Country
TTITLE3=Guitar Player Passing Through
TTITLE4=Catch-up Song
TTITLE5=Back Where You Came From
TTITLE6=Changing Locks and The Key
TTITLE7=(untitled)
EXTD=
EXTT0=
EXTT1=
EXTT2=
EXTT3=
EXTT4=
EXTT5=
EXTT6=
EXTT7=
PLAYORDER=
